<svg width="2836" height="2015" viewBox="0 0 2836 2015" fill="none" xmlns="http://www.w3.org/2000/svg">
<g clip-path="url(#clip0)">
<path d="M1854.6 384.05L1417.89 0L0 1247V2015L1854.6 384.05ZM1308.42 2015V1247L1635.55 959.317L2072.27 1343.37" fill="#4F4F4F"/>
<path d="M2508.87 959.317L2836 1247V2015L2072.27 1343.37" fill="#828282"/>
<path d="M2072.5 576.175L1636.36 959.62L2072.38 1343.06L2508.52 959.62L2072.5 576.175Z" fill="black"/>
<path d="M2508.52 959.62L2072.5 1343.06L2133.36 1396.59L2569.39 1013.14L2508.52 959.62Z" fill="url(#paint0_linear)"/>
<path d="M2508.87 959.317L2285.01 1529.14L2072.15 1343.37" fill="url(#paint1_linear)"/>
</g>
<defs>
<linearGradient id="paint0_linear" x1="2290.43" y1="1151.41" x2="2343.52" y2="1211.78" gradientUnits="userSpaceOnUse">
<stop offset="0.2" stop-opacity="0.15"/>
<stop offset="0.85" stop-color="#616161" stop-opacity="0.01"/>
</linearGradient>
<linearGradient id="paint1_linear" x1="2290.52" y1="959.453" x2="2290.52" y2="1529.27" gradientUnits="userSpaceOnUse">
<stop offset="0.2" stop-opacity="0.55"/>
<stop offset="0.85" stop-color="#616161" stop-opacity="0.01"/>
</linearGradient>
<clipPath id="clip0">
<rect width="2015" height="2836" fill="white" transform="matrix(0 1 1 0 0 0)"/>
</clipPath>
</defs>
</svg>
